<svg width="393" height="573" viewBox="0 0 393 573" fill="none" xmlns="http://www.w3.org/2000/svg">
<path d="M0 17H393V318.959C247.126 370.235 175.622 567.506 0 427.921V17Z" fill="#E2E2E2"/>
<path d="M0 0H393V275.455C243.851 320.048 160.611 512.58 0 446.224V0Z" fill="#0F3D2E"/>
<path d="M-54.4989 120.336C-37.712 120.38 -21.0982 123.73 -5.60606 130.194C9.88612 136.659 23.9533 146.112 35.7922 158.013C47.6311 169.915 57.01 184.031 63.3934 199.557C69.7767 215.083 73.0395 231.714 72.9954 248.501C72.9513 265.288 69.6013 281.902 63.1365 297.394C56.6717 312.886 47.2189 326.953 35.3176 338.792C23.4163 350.631 9.29974 360.01 -6.22616 366.393C-21.7521 372.777 -38.3832 376.039 -55.1701 375.995L-55.0355 324.73C-44.9809 324.757 -35.0194 322.803 -25.7201 318.979C-16.4207 315.156 -7.9654 309.538 -0.837017 302.447C6.29137 295.356 11.9533 286.931 15.8254 277.651C19.6975 268.372 21.7041 258.421 21.7305 248.367C21.7569 238.312 19.8026 228.35 15.9793 219.051C12.1559 209.752 6.53832 201.296 -0.552736 194.168C-7.64379 187.04 -16.0694 181.378 -25.3486 177.506C-34.6278 173.633 -44.5788 171.627 -54.6335 171.601L-54.4989 120.336Z" fill="url(#paint0_linear_929_77)" fill-opacity="0.2"/>
<path d="M366.667 10.4995C360.028 19.1542 356.43 29.673 356.428 40.4328C356.427 51.1927 360.022 61.5958 366.66 70.037C373.297 78.4781 382.607 84.4884 393.154 87.1404C403.701 89.7923 414.899 88.9387 425.019 84.7111L413.804 57.8223C409.72 59.5282 405.201 59.8727 400.946 58.8026C396.69 57.7325 392.933 55.3072 390.255 51.901C387.576 48.4949 386.126 44.297 386.126 39.9552C386.127 35.6134 387.579 31.3689 390.258 27.8766L366.667 10.4995Z" fill="url(#paint1_linear_929_77)" fill-opacity="0.2"/>
<defs>
<linearGradient id="paint0_linear_929_77" x1="-54.4989" y1="120.336" x2="-55.1701" y2="375.995" gradientUnits="userSpaceOnUse">
<stop offset="0.250131" stop-color="#F5F3F4"/>
<stop offset="0.89" stop-color="#37B49F"/>
</linearGradient>
<linearGradient id="paint1_linear_929_77" x1="386.879" y1="-5.22002" x2="425.554" y2="84.4843" gradientUnits="userSpaceOnUse">
<stop offset="0.525591" stop-color="#D5D52B"/>
<stop offset="0.89" stop-color="#DEDDDB"/>
</linearGradient>
</defs>
</svg>
