<svg width="1440" height="701" viewBox="0 0 1440 701" fill="none" xmlns="http://www.w3.org/2000/svg">
<path d="M0 27H1440V451C905.5 523 643.5 800 0 604V27Z" fill="#E2E2E2"/>
<path d="M0 0H1440V391.026C893.5 454.328 588.5 727.641 0 633.444V0Z" fill="#0F3D2E"/>
<path d="M-50.9009 169.515C-25.1527 169.582 0.330146 174.721 24.0925 184.637C47.8549 194.553 69.4316 209.052 87.5905 227.306C105.749 245.561 120.135 267.213 129.926 291.027C139.717 314.841 144.722 340.351 144.654 366.099C144.586 391.847 139.448 417.33 129.532 441.093C119.616 464.855 105.117 486.432 86.8626 504.591C68.608 522.749 46.9555 537.135 23.1414 546.926C-0.672737 556.717 -26.1821 561.722 -51.9304 561.654L-51.7239 483.022C-36.3018 483.063 -21.0227 480.065 -6.75895 474.201C7.50475 468.336 20.4737 459.72 31.4075 448.843C42.3412 437.967 51.0256 425.043 56.9648 410.811C62.904 396.578 65.9817 381.315 66.0222 365.893C66.0627 350.471 63.0652 335.191 57.2008 320.928C51.3364 306.664 42.72 293.695 31.8435 282.761C20.967 271.828 8.04346 263.143 -6.18927 257.204C-20.422 251.265 -35.6852 248.187 -51.1073 248.147L-50.9009 169.515Z" fill="url(#paint0_linear_913_50)" fill-opacity="0.2"/>
<path d="M1386.57 47.8127C1377.63 59.4693 1372.78 73.6365 1372.78 88.1285C1372.78 102.62 1377.62 116.632 1386.56 128.001C1395.5 139.37 1408.04 147.465 1422.24 151.037C1436.45 154.608 1451.53 153.459 1465.16 147.765L1450.06 111.55C1444.56 113.847 1438.47 114.311 1432.74 112.87C1427.01 111.429 1421.95 108.162 1418.34 103.574C1414.73 98.9868 1412.78 93.333 1412.78 87.4852C1412.78 81.6374 1414.73 75.9207 1418.34 71.217L1386.57 47.8127Z" fill="url(#paint1_linear_913_50)" fill-opacity="0.2"/>
<defs>
<linearGradient id="paint0_linear_913_50" x1="-50.9009" y1="169.515" x2="-51.9304" y2="561.654" gradientUnits="userSpaceOnUse">
<stop offset="0.250131" stop-color="#F5F3F4"/>
<stop offset="0.89" stop-color="#37B49F"/>
</linearGradient>
<linearGradient id="paint1_linear_913_50" x1="1413.79" y1="26.6407" x2="1465.88" y2="147.459" gradientUnits="userSpaceOnUse">
<stop offset="0.525591" stop-color="#D5D52B"/>
<stop offset="0.89" stop-color="#DEDDDB"/>
</linearGradient>
</defs>
</svg>
