<svg width="81" height="76" viewBox="0 0 81 76" fill="none" xmlns="http://www.w3.org/2000/svg">
<path d="M64.4805 65.1969C60.7293 67.0897 56.9264 67.3994 53.0719 66.1261C48.9765 64.8183 45.449 62.0307 42.4893 57.7632C40.9062 55.4918 39.5468 52.8591 38.4111 49.865L36.7592 45.477H24.5762L21.8402 51.9815C21.6681 52.4289 21.5821 52.7902 21.5821 53.0656C21.5821 53.3409 21.6337 53.6506 21.737 53.9948C21.8746 54.3045 22.1327 54.597 22.5113 54.8724C22.9243 55.1133 23.3717 55.2337 23.8535 55.2337H24.2665V55.7499H13.2192V55.2337H13.6838C14.4754 55.2337 15.2497 55.01 16.0068 54.5626C16.7984 54.0808 17.4523 53.3753 17.9685 52.4461L29.4804 26.1702C28.1382 23.1416 26.7099 21.0595 25.1957 19.9238C23.9223 18.9602 22.7006 18.4784 21.5305 18.4784C20.3948 18.4784 19.3279 18.6505 18.3299 18.9946L18.2266 18.4784C20.7045 17.205 23.0792 16.5684 25.3505 16.5684C28.1726 16.5684 30.7021 17.6696 32.9391 19.8722C35.1416 22.0404 37.0861 25.1721 38.7724 29.2675L46.2577 47.7484C49.0798 54.7347 51.9706 59.5356 54.9303 62.1511C56.1349 63.218 57.3738 63.9579 58.6472 64.3709C59.9205 64.7839 60.9874 64.9904 61.8478 64.9904C62.7425 64.9904 63.6029 64.8871 64.4289 64.6807L64.4805 65.1969ZM25.4538 43.2573H35.9848L32.3712 33.7071C32.1992 33.2253 31.9582 32.5714 31.6485 31.7454C31.3388 30.885 31.1323 30.2828 31.029 29.9386L25.4538 43.2573Z" fill="#0F3D2E"/>
<path d="M59.947 16.67C58.579 16.67 57.534 17.259 56.812 18.437C56.47 18.969 56.299 19.577 56.299 20.261V51.44C56.299 56.57 54.988 60.56 52.366 63.41C49.972 65.994 47.16 67.286 43.93 67.286C41.422 67.286 38.876 66.583 36.292 65.177L36.463 64.607C37.185 64.759 37.869 64.835 38.515 64.835C40.073 64.835 41.46 64.436 42.676 63.638C46.058 61.51 47.749 57.387 47.749 51.269V20.261C47.711 18.855 47.103 17.81 45.925 17.126C45.355 16.822 44.747 16.67 44.101 16.67H43.36V16.1H60.688V16.67H59.947Z" fill="#0F3D2E"/>
<path d="M26.2958 7.70752L25.3375 9.71994L26.2817 11.1109L27.2346 9.6259L26.2958 7.70752ZM29.3058 7.59596L26.297 12.2857L23.864 8.70142L22.1344 13.6995L18.3494 9.75402L17.927 13.8496L13.0835 10.6017L15.2194 14.7026C15.2835 14.6785 15.3503 14.6595 15.4197 14.6468C16.0605 14.5293 16.6833 14.9591 16.8008 15.5998C16.8872 16.0706 16.6778 16.5315 16.3066 16.7897L16.5967 17.3466C17.179 18.1364 19.3266 18.4356 22.9064 17.8513C26.6943 17.233 28.8641 16.141 29.0784 15.0571L29.1002 14.3398C28.5135 14.373 27.9738 13.9615 27.8653 13.3697C27.7477 12.729 28.1775 12.1061 28.8183 11.9886C28.9379 11.9666 29.057 11.9638 29.1723 11.9779L29.3058 7.59596ZM15.9739 10.1132L16.3675 12.0246L17.3936 12.7127L17.5151 11.5341L15.9739 10.1132ZM21.1214 9.27148L20.6083 11.1739L21.8688 12.4878L22.4423 10.8306L21.1214 9.27148ZM28.9351 12.6253C28.6383 12.6797 28.4474 12.9563 28.5018 13.253C28.5563 13.5497 28.8329 13.7406 29.1297 13.6862C29.4264 13.6318 29.6172 13.3551 29.5628 13.0584C29.5084 12.7618 29.2318 12.5708 28.9351 12.6253ZM15.5365 15.2834C15.2398 15.3379 15.0489 15.6145 15.1033 15.9112C15.1577 16.2079 15.4343 16.3988 15.7311 16.3444C16.0278 16.2899 16.2187 16.0133 16.1642 15.7166C16.1098 15.4199 15.8332 15.229 15.5365 15.2834ZM20.0873 15.0769C20.7281 14.9594 21.3508 15.3891 21.4683 16.0299C21.5859 16.6706 21.1562 17.2934 20.5154 17.4109C19.8746 17.5285 19.2518 17.0987 19.1343 16.458C19.0168 15.8173 19.4466 15.1944 20.0873 15.0769ZM24.5575 14.2569C25.1982 14.1394 25.821 14.5692 25.9385 15.2099C26.056 15.8507 25.6264 16.4734 24.9856 16.591C24.3448 16.7085 23.722 16.2788 23.6045 15.6381C23.487 14.9973 23.9167 14.3745 24.5575 14.2569ZM20.204 15.7135C19.9073 15.768 19.7164 16.0445 19.7709 16.3412C19.8253 16.6379 20.1018 16.8289 20.3986 16.7744C20.6953 16.72 20.8861 16.4433 20.8317 16.1467C20.7773 15.85 20.5008 15.6591 20.204 15.7135ZM24.6742 14.8936C24.3774 14.948 24.1866 15.2246 24.241 15.5213C24.2955 15.818 24.5721 16.0089 24.8688 15.9545C25.1656 15.9001 25.3564 15.6234 25.302 15.3267C25.2476 15.03 24.971 14.8392 24.6742 14.8936Z" fill="#0F3D2E"/>
<rect width="76" height="11.875" transform="translate(0 34.3676)" fill="white"/>
<path d="M5.21245 41.7424H3.09915L2.76038 42.7426H1.31656L3.36533 37.0803H4.96241L7.01118 42.7426H5.55123L5.21245 41.7424ZM4.85755 40.6777L4.1558 38.6047L3.46212 40.6777H4.85755ZM9.51411 37.0803C10.111 37.0803 10.6326 37.1986 11.0789 37.4352C11.5252 37.6718 11.8694 38.0052 12.1114 38.4354C12.3587 38.8602 12.4824 39.3522 12.4824 39.9114C12.4824 40.4653 12.3587 40.9573 12.1114 41.3875C11.8694 41.8177 11.5226 42.1511 11.0709 42.3877C10.6245 42.6243 10.1056 42.7426 9.51411 42.7426H7.39274V37.0803H9.51411ZM9.42538 41.5488C9.94699 41.5488 10.353 41.4063 10.6434 41.1213C10.9337 40.8363 11.0789 40.433 11.0789 39.9114C11.0789 39.3898 10.9337 38.9838 10.6434 38.6935C10.353 38.4031 9.94699 38.2579 9.42538 38.2579H8.77203V41.5488H9.42538ZM14.3905 38.1853V39.3307H16.2377V40.3954H14.3905V41.6376H16.4796V42.7426H13.0112V37.0803H16.4796V38.1853H14.3905ZM19.2545 37.0803C19.8514 37.0803 20.373 37.1986 20.8193 37.4352C21.2656 37.6718 21.6098 38.0052 21.8517 38.4354C22.0991 38.8602 22.2228 39.3522 22.2228 39.9114C22.2228 40.4653 22.0991 40.9573 21.8517 41.3875C21.6098 41.8177 21.2629 42.1511 20.8112 42.3877C20.3649 42.6243 19.846 42.7426 19.2545 42.7426H17.1331V37.0803H19.2545ZM19.1658 41.5488C19.6874 41.5488 20.0933 41.4063 20.3837 41.1213C20.6741 40.8363 20.8193 40.433 20.8193 39.9114C20.8193 39.3898 20.6741 38.9838 20.3837 38.6935C20.0933 38.4031 19.6874 38.2579 19.1658 38.2579H18.5124V41.5488H19.1658ZM25.4295 42.7991C24.8972 42.7991 24.4078 42.6754 23.9615 42.428C23.5206 42.1807 23.1684 41.8365 22.9049 41.3956C22.6468 40.9493 22.5177 40.4492 22.5177 39.8953C22.5177 39.3414 22.6468 38.844 22.9049 38.4031C23.1684 37.9621 23.5206 37.618 23.9615 37.3706C24.4078 37.1233 24.8972 36.9996 25.4295 36.9996C25.9619 36.9996 26.4485 37.1233 26.8895 37.3706C27.3358 37.618 27.6853 37.9621 27.9381 38.4031C28.1962 38.844 28.3252 39.3414 28.3252 39.8953C28.3252 40.4492 28.1962 40.9493 27.9381 41.3956C27.68 41.8365 27.3304 42.1807 26.8895 42.428C26.4485 42.6754 25.9619 42.7991 25.4295 42.7991ZM25.4295 41.5408C25.8812 41.5408 26.2415 41.3902 26.5104 41.0891C26.7846 40.7879 26.9218 40.39 26.9218 39.8953C26.9218 39.3952 26.7846 38.9973 26.5104 38.7015C26.2415 38.4004 25.8812 38.2498 25.4295 38.2498C24.9725 38.2498 24.6068 38.3977 24.3326 38.6935C24.0637 38.9892 23.9293 39.3898 23.9293 39.8953C23.9293 40.3954 24.0637 40.796 24.3326 41.0971C24.6068 41.3929 24.9725 41.5408 25.4295 41.5408ZM32.924 37.0803V38.1853H31.4237V42.7426H30.0444V38.1853H28.5441V37.0803H32.924ZM34.7293 37.0803V40.468C34.7293 40.8068 34.8126 41.0676 34.9793 41.2504C35.146 41.4332 35.3907 41.5246 35.7134 41.5246C36.036 41.5246 36.2834 41.4332 36.4554 41.2504C36.6275 41.0676 36.7135 40.8068 36.7135 40.468V37.0803H38.0928V40.4599C38.0928 40.9654 37.9853 41.3929 37.7702 41.7424C37.5551 42.092 37.2647 42.3554 36.8991 42.5329C36.5388 42.7104 36.1355 42.7991 35.6892 42.7991C35.2428 42.7991 34.8422 42.713 34.4873 42.541C34.1378 42.3635 33.8609 42.1 33.6565 41.7505C33.4522 41.3956 33.35 40.9654 33.35 40.4599V37.0803H34.7293ZM43.8849 42.7426H42.5056L40.1987 39.25V42.7426H38.8194V37.0803H40.1987L42.5056 40.589V37.0803H43.8849V42.7426ZM51.1264 37.0803V40.9358C51.1264 41.5327 50.957 41.9925 50.6183 42.3151C50.2849 42.6378 49.8332 42.7991 49.2632 42.7991C48.6663 42.7991 48.1877 42.6297 47.8274 42.2909C47.4671 41.9521 47.287 41.4709 47.287 40.8471H48.6582C48.6582 41.0837 48.7066 41.2638 48.8034 41.3875C48.9002 41.5058 49.04 41.565 49.2228 41.565C49.3895 41.565 49.5186 41.5112 49.61 41.4037C49.7014 41.2961 49.7471 41.1402 49.7471 40.9358V37.0803H51.1264ZM55.5234 41.7424H53.4101L53.0713 42.7426H51.6275L53.6763 37.0803H55.2734L57.3221 42.7426H55.8622L55.5234 41.7424ZM55.1685 40.6777L54.4668 38.6047L53.7731 40.6777H55.1685ZM61.4625 38.8709C61.3603 38.6827 61.2124 38.5402 61.0188 38.4434C60.8306 38.3412 60.6075 38.2902 60.3494 38.2902C59.903 38.2902 59.5454 38.438 59.2766 38.7338C59.0077 39.0242 58.8733 39.414 58.8733 39.9034C58.8733 40.425 59.0131 40.8337 59.2927 41.1294C59.5777 41.4198 59.9676 41.565 60.4623 41.565C60.8011 41.565 61.0861 41.4789 61.3173 41.3069C61.5539 41.1348 61.726 40.8874 61.8335 40.5648H60.0832V39.5485H63.0838V40.831C62.9816 41.1751 62.8068 41.4951 62.5595 41.7908C62.3175 42.0866 62.0083 42.3259 61.6319 42.5087C61.2554 42.6915 60.8306 42.7829 60.3574 42.7829C59.7982 42.7829 59.2981 42.662 58.8571 42.42C58.4216 42.1726 58.0801 41.8312 57.8328 41.3956C57.5908 40.96 57.4698 40.4626 57.4698 39.9034C57.4698 39.3441 57.5908 38.8467 57.8328 38.4112C58.0801 37.9702 58.4216 37.6287 58.8571 37.3868C59.2927 37.1394 59.7901 37.0157 60.3494 37.0157C61.0269 37.0157 61.5969 37.1797 62.0594 37.5078C62.5272 37.8358 62.8364 38.2902 62.987 38.8709H61.4625ZM64.9609 37.0803V40.468C64.9609 40.8068 65.0442 41.0676 65.2109 41.2504C65.3776 41.4332 65.6223 41.5246 65.9449 41.5246C66.2676 41.5246 66.5149 41.4332 66.687 41.2504C66.8591 41.0676 66.9451 40.8068 66.9451 40.468V37.0803H68.3244V40.4599C68.3244 40.9654 68.2169 41.3929 68.0018 41.7424C67.7867 42.092 67.4963 42.3554 67.1306 42.5329C66.7703 42.7104 66.367 42.7991 65.9207 42.7991C65.4744 42.7991 65.0738 42.713 64.7189 42.541C64.3694 42.3635 64.0924 42.1 63.8881 41.7505C63.6837 41.3956 63.5816 40.9654 63.5816 40.4599V37.0803H64.9609ZM74.1164 42.7426H72.7372L70.4303 39.25V42.7426H69.051V37.0803H70.4303L72.7372 40.589V37.0803H74.1164V42.7426Z" fill="#0F3D2E"/>
</svg>
